<svg version="1.1" id="Layer_1" xmlns="http://www.w3.org/2000/svg" xmlns:xlink="http://www.w3.org/1999/xlink" x="0px" y="0px"
	 width="100%" viewBox="0 0 688 464" enable-background="new 0 0 688 464" xml:space="preserve">
<path fill="#000000" opacity="1.000000" stroke="none" 
	d="
M679.158447,269.161438 
	C679.932739,277.451141 678.847290,285.204163 678.139832,292.977020 
	C677.856323,296.091248 675.909119,298.505127 674.830933,301.282043 
	C668.996338,316.308746 659.786438,329.403839 650.612854,342.422119 
	C644.515320,351.075134 638.282043,359.689362 631.038452,367.533081 
	C622.825623,376.426331 612.761841,382.888031 603.208679,390.044037 
	C590.318848,399.699402 575.944702,406.776398 561.028198,412.408447 
	C551.033813,416.182068 540.317261,418.156586 529.817627,420.449829 
	C516.839600,423.284363 503.765320,425.688507 490.707336,428.144012 
	C475.537598,430.996643 460.410339,434.183899 444.918549,434.853271 
	C440.709534,435.035126 436.616638,435.991547 432.775513,437.551727 
	C423.946411,441.137939 414.506165,440.063232 405.396851,441.458893 
	C394.268311,443.163879 382.918365,443.421600 371.954254,446.264587 
	C361.836823,448.888031 351.658813,451.096344 341.259491,452.323181 
	C337.331970,452.786530 333.461456,453.856140 329.616547,454.849213 
	C327.465485,455.404785 325.277039,455.873596 323.212524,455.199310 
	C313.528992,452.036713 303.426178,450.805084 293.478302,449.100647 
	C283.221405,447.343323 273.244598,444.219360 262.618713,443.943665 
	C254.411118,443.730652 246.231155,441.590363 238.244415,439.091675 
	C225.829681,435.207642 213.278305,431.760132 200.780243,428.143463 
	C200.146530,427.960083 199.372086,428.101227 198.826996,427.797363 
	C188.361343,421.963226 176.857834,418.440002 166.270493,412.769409 
	C150.277664,404.203644 135.055084,394.411713 120.399529,383.890350 
	C112.021912,377.875916 102.136795,374.157471 94.801643,366.721283 
	C84.765564,356.547028 72.912849,348.454651 62.690830,338.504120 
	C61.264370,337.115540 59.934132,335.603210 58.721783,334.023529 
	C48.897682,321.222534 40.185410,307.652863 34.102257,292.728943 
	C31.157707,285.505035 28.559296,278.064667 27.563269,269.915894 
	C26.193785,258.711731 25.330097,247.495834 24.383368,236.271042 
	C24.258152,234.786438 23.694132,233.147888 24.121929,231.838226 
	C27.141808,222.593231 26.659369,212.728134 29.137173,203.454620 
	C31.991714,192.771118 34.303288,182.067596 39.775249,171.963898 
	C45.145184,162.048599 48.765804,151.020660 53.450081,140.621399 
	C58.227936,130.014404 64.477501,120.221024 72.231712,111.488792 
	C82.081413,100.396790 94.000862,91.670853 105.372520,82.273972 
	C114.121925,75.043961 123.703476,69.096657 132.671082,62.274994 
	C140.909225,56.008221 150.636856,53.670094 160.030365,50.867180 
	C167.545456,48.624763 174.457382,45.157181 181.596725,42.274143 
	C187.972733,39.699368 194.599701,38.769085 201.061020,37.009392 
	C210.799606,34.357159 220.734390,32.156796 230.726135,30.791634 
	C238.098648,29.784334 245.362381,27.834709 252.797333,27.625891 
	C256.017487,27.535448 259.087372,27.471329 262.034210,26.167393 
	C266.893341,24.017307 272.031372,24.204552 277.199188,23.903198 
	C290.263611,23.141367 303.347717,22.012638 316.381561,21.439838 
	C331.235809,20.787041 346.154205,20.772997 361.199280,22.913738 
	C376.176208,25.044790 391.657715,23.935719 406.872833,25.503452 
	C423.147522,27.180368 439.418152,28.569170 455.393250,32.544342 
	C465.951935,35.171715 476.619995,37.431629 487.587952,38.245777 
	C495.794495,38.854942 503.379974,42.671497 511.363770,44.626266 
	C520.974731,46.979435 530.634888,49.181942 540.126648,51.953648 
	C546.290283,53.753517 552.251892,56.307476 558.196350,58.782196 
	C568.940491,63.255074 578.452698,70.057846 588.858215,75.244476 
	C596.828979,79.217529 602.508667,86.641632 609.221130,92.516930 
	C615.231384,97.777664 620.254944,103.941536 625.593933,109.813583 
	C629.795166,114.434212 631.940491,120.249619 634.267639,125.932564 
	C635.718140,129.474747 636.912292,133.189392 638.851685,136.452026 
	C646.524902,149.360870 652.005554,163.331635 658.347412,176.861099 
	C662.258362,185.204758 664.153503,194.487122 667.035339,203.321365 
	C669.339661,210.385544 671.782898,217.404312 674.125732,224.456116 
	C674.542053,225.709244 674.936218,227.009933 675.056580,228.314865 
	C676.163513,240.306976 677.191772,252.306351 678.291016,264.299225 
	C678.427002,265.782288 678.843994,267.239594 679.158447,269.161438 
M632.460144,174.944977 
	C631.285583,172.194977 630.184998,169.410538 628.923218,166.701111 
	C624.434998,157.063156 619.369873,147.654480 615.513000,137.772675 
	C611.472290,127.419708 605.151672,118.906433 597.584900,111.061287 
	C589.492249,102.670853 579.123474,97.108124 570.582825,89.344414 
	C562.708618,82.186523 552.861084,78.664032 543.529846,74.905083 
	C527.666138,68.514664 510.959381,64.216400 494.603058,59.051151 
	C493.658783,58.752968 492.692810,58.458652 491.715393,58.340122 
	C478.087769,56.687443 464.604126,54.248806 451.281067,50.943130 
	C449.190338,50.424381 447.163391,49.187927 445.088531,49.143467 
	C434.580078,48.918266 424.531616,45.655533 414.116455,44.705536 
	C408.853546,44.225491 403.682129,43.055405 398.295593,43.193802 
	C385.203125,43.530190 372.220123,41.790573 359.190399,40.860703 
	C353.599823,40.461723 347.886658,38.925335 342.518005,39.520794 
	C329.288910,40.988079 316.009674,40.210369 302.731018,41.906322 
	C286.408936,43.990986 269.872742,44.104439 253.468307,46.670151 
	C236.347885,49.347851 219.599228,54.148685 202.259384,55.443718 
	C201.609131,55.492287 200.933853,55.672428 200.340378,55.944347 
	C190.670044,60.375126 180.285248,62.791267 170.279602,66.233093 
	C150.911621,72.895477 134.109955,83.869682 118.093216,95.912308 
	C102.965027,107.286858 90.527847,121.756615 78.122055,136.059753 
	C75.621834,138.942352 72.837738,141.586594 71.023499,145.052094 
	C62.856007,160.653320 57.303787,177.406601 49.723686,193.265213 
	C49.377468,193.989548 49.245243,194.877716 49.236259,195.692032 
	C49.160328,202.578812 46.793587,209.062073 45.752079,215.776031 
	C43.762897,228.599030 41.560699,241.431915 42.885235,254.473038 
	C44.252941,267.939148 47.667648,280.651703 53.902531,292.979980 
	C60.001106,305.038696 67.907295,315.434601 76.464386,325.621460 
	C85.003342,335.786774 97.555794,341.004456 106.526703,350.566803 
	C113.985611,358.517487 124.112106,362.825653 132.371338,369.831787 
	C142.847122,378.718231 155.638092,384.426575 167.554092,391.273132 
	C176.599136,396.470184 186.642746,399.802246 195.493073,405.473877 
	C197.584549,406.814209 199.980408,407.503723 202.469177,408.045013 
	C208.148682,409.280334 213.758804,411.143646 219.285553,412.651001 
	C226.976227,414.748505 234.903931,417.042358 242.596664,418.993958 
	C257.461426,422.764984 272.847961,424.598602 287.996948,427.368195 
	C293.483063,428.371155 298.993896,429.567413 304.587524,430.299103 
	C314.681366,431.619446 325.133209,427.899475 334.938782,432.691559 
	C336.413605,433.412354 338.622406,433.113739 340.364105,432.721008 
	C347.223297,431.174286 353.858246,428.762787 361.044739,428.580658 
	C368.362946,428.395203 375.383911,425.554596 382.604187,425.070007 
	C393.723450,424.323700 404.554291,421.877747 415.567719,420.662048 
	C422.211151,419.928772 428.508575,416.296936 434.912598,416.615173 
	C446.538422,417.192932 457.613068,413.935394 468.961487,412.937988 
	C479.435608,412.017395 490.244934,410.571991 500.559570,406.911499 
	C512.513367,402.669281 525.579651,402.654785 537.679932,398.666443 
	C550.538391,394.428253 564.172424,392.973572 576.380554,386.204559 
	C586.768066,380.445038 595.794312,372.974487 605.257263,366.064362 
	C613.565552,359.997467 620.715393,352.669098 627.402588,344.648651 
	C632.638245,338.369110 634.890259,330.171326 641.383240,324.914307 
	C643.176880,323.462097 644.995972,321.784119 646.135620,319.821869 
	C655.294189,304.052795 661.478149,287.417297 659.859192,268.755127 
	C658.701355,255.408173 657.027893,242.115540 653.901306,229.072693 
	C652.352905,222.613129 649.806885,216.375046 648.517212,209.876999 
	C647.587646,205.193314 645.799377,201.132812 643.613159,196.977844 
	C639.902161,189.924850 635.320801,183.295486 632.460144,174.944977 
z"/>
<path fill="#000000" opacity="1.000000" stroke="none" 
	d="
M238.280029,251.389633 
	C240.341843,243.295807 239.503769,235.323120 240.155106,227.464905 
	C240.886002,218.646210 239.279510,209.946182 239.799164,201.119034 
	C240.246201,193.525574 237.092499,186.187180 235.582794,178.734879 
	C234.016830,171.004791 227.242462,168.868683 220.663330,167.576355 
	C214.494324,166.364532 212.315079,164.574280 211.019684,158.452255 
	C209.843613,152.894104 212.865601,149.743759 217.166214,147.926376 
	C221.962860,145.899399 226.871811,143.961029 232.217728,147.794296 
	C236.300522,150.721863 241.490753,151.734161 245.386139,155.482971 
	C251.114761,160.996002 253.632278,167.673660 254.949127,175.198090 
	C256.106354,181.810242 258.114044,188.188477 258.824097,194.985016 
	C259.812286,204.443634 260.169739,213.727509 258.741608,223.119858 
	C258.096252,227.364029 257.208618,231.607544 257.624756,235.963791 
	C257.964630,239.522049 259.994171,241.538956 263.406830,241.623505 
	C270.971710,241.810959 277.984619,246.167603 285.962921,243.978882 
	C289.406555,243.034164 298.791595,250.024078 300.006897,253.263443 
	C302.321442,259.432800 300.175873,264.641235 296.420105,269.455261 
	C295.941101,270.069214 295.039886,270.897125 294.462677,270.806641 
	C288.931305,269.939514 282.958252,272.151794 277.853241,269.450989 
	C272.333130,266.530640 266.424316,267.708466 260.776306,266.568542 
	C259.173615,266.245117 258.002258,267.563934 257.496887,269.113190 
	C257.244751,269.886230 257.515717,270.889648 257.136658,271.552429 
	C252.395844,279.841980 255.351501,288.885834 254.595016,297.550720 
	C253.814941,306.485870 254.340729,315.583771 252.970810,324.404785 
	C251.618866,333.110046 253.593414,342.061798 250.343094,350.582520 
	C248.360641,355.779480 244.394135,358.412170 239.604507,360.033173 
	C236.530380,361.073578 233.768768,359.395325 232.448792,356.759827 
	C230.315048,352.499542 228.666519,348.105103 230.145248,342.967590 
	C233.386322,331.707062 235.677139,320.202332 235.568222,308.438354 
	C235.433548,293.892639 237.767136,279.512390 238.022980,264.995056 
	C238.101196,260.556885 236.492691,256.111328 238.280029,251.389633 
z"/>
<path fill="#000000" opacity="1.000000" stroke="none" 
	d="
M182.389969,311.425903 
	C180.988281,312.074524 179.852905,312.443542 178.885071,313.071045 
	C169.770340,318.980377 162.245605,314.901978 154.063797,310.181305 
	C143.830536,304.276947 141.433090,293.463470 135.865479,284.632874 
	C131.447113,277.624969 131.607773,270.227509 134.875854,262.813660 
	C136.642334,258.806274 134.909286,254.173172 137.437286,250.231750 
	C138.518661,248.545822 139.412003,246.877777 141.017395,245.577240 
	C146.183823,241.391754 148.106155,235.510391 149.791122,229.320969 
	C152.070663,220.947464 147.500305,214.966553 143.594833,208.602325 
	C141.218857,204.730499 143.520096,198.194382 148.222336,195.038925 
	C152.424988,192.218719 156.191803,192.961365 159.752228,196.899323 
	C164.292969,201.921555 170.305511,205.589371 173.276810,212.073883 
	C174.162766,214.007401 176.298279,213.265320 177.803040,212.843307 
	C186.147278,210.503174 193.307968,212.646469 200.370285,217.428528 
	C208.358734,222.837692 215.113602,229.542801 217.502777,238.632965 
	C221.922226,255.447769 222.028244,272.192413 210.258881,286.850372 
	C209.634415,287.628143 208.888092,288.382141 208.518158,289.279053 
	C203.673615,301.024139 193.704544,306.725891 182.389969,311.425903 
M154.445267,271.665802 
	C154.738556,272.442108 155.344009,273.246826 155.276413,273.990326 
	C154.656952,280.802856 158.796661,284.159943 164.208588,286.731995 
	C165.219727,287.212524 166.346252,287.997925 166.825668,288.943665 
	C168.108322,291.473907 170.168991,291.427460 172.591553,291.757935 
	C176.287292,292.262024 177.741058,289.640289 179.407257,287.635406 
	C183.539520,282.663208 190.647949,281.039612 193.521667,274.682556 
	C195.229477,270.904663 197.945435,267.476868 199.069077,263.564514 
	C200.875549,257.274719 202.072601,250.203934 198.620911,244.480164 
	C194.206680,237.160309 188.557098,230.218292 178.004654,232.962753 
	C176.922256,233.244278 175.684723,232.994827 174.525879,232.905060 
	C170.376953,232.583679 167.695602,234.340195 165.895828,238.152878 
	C162.793335,244.725281 160.061279,251.450836 157.121048,258.078003 
	C155.243988,262.308807 153.709610,266.242249 154.445267,271.665802 
z"/>
<path fill="#000000" opacity="1.000000" stroke="none" 
	d="
M433.846924,163.726120 
	C444.760742,164.577866 453.964874,168.202682 461.741577,175.422882 
	C469.709473,182.820648 473.126160,198.661575 467.800568,208.282578 
	C462.942657,217.058578 460.949585,227.659637 452.503204,234.216492 
	C440.366333,243.638229 427.694733,252.077881 412.174683,255.133545 
	C404.056122,256.731964 392.499908,250.013580 387.521637,241.362213 
	C384.289337,235.745132 380.983490,230.170349 377.756409,224.550339 
	C375.250793,220.186905 378.028473,215.881744 378.362793,211.648483 
	C379.275452,200.092010 384.322418,190.044998 392.046631,181.342133 
	C396.725281,176.070709 397.185303,172.996872 393.738861,166.906372 
	C392.028198,163.883316 391.997986,160.529327 390.837097,157.434357 
	C390.537659,156.636002 390.822540,155.415131 391.235046,154.585190 
	C394.550171,147.915207 407.635559,146.292038 410.802429,152.803558 
	C415.733765,162.943130 423.523010,164.913498 433.846924,163.726120 
M401.143921,208.760254 
	C400.060425,211.982498 399.953400,215.296738 400.307709,218.632126 
	C400.599335,221.377563 406.596222,229.041840 408.755707,228.964340 
	C415.816833,228.710861 423.034149,229.257980 429.286774,224.668442 
	C435.344971,220.221588 440.372345,214.716812 445.614441,209.435913 
	C449.209229,205.814453 449.185059,201.245255 447.413910,196.881409 
	C445.474670,192.103455 442.553986,187.947571 438.075928,184.991959 
	C432.757477,181.481689 419.483490,181.102386 415.997498,185.112991 
	C410.021179,191.988708 404.696350,199.385483 401.143921,208.760254 
z"/>
<path fill="#000000" opacity="1.000000" stroke="none" 
	d="
M429.766479,359.873230 
	C427.718018,358.985931 426.102356,358.138031 424.457367,357.351379 
	C417.947449,354.238342 415.362152,348.793030 415.842773,341.931305 
	C416.755890,328.895111 414.662689,316.079346 413.255127,303.223877 
	C412.743500,298.551331 412.978333,294.276733 417.198364,291.767883 
	C420.831940,289.607697 425.162598,290.196350 428.605072,292.371765 
	C432.387604,294.762085 434.697083,298.412109 433.539612,303.329651 
	C433.183014,304.844727 433.642426,306.270203 433.990936,307.742126 
	C435.215332,312.913300 436.573029,318.023468 436.164795,323.486176 
	C435.366852,334.164001 438.978027,336.008636 448.681458,336.850067 
	C456.207489,337.502655 463.627899,336.157043 471.040070,335.397552 
	C478.328033,334.650726 485.608673,334.053894 492.908447,334.055328 
	C502.617401,334.057220 512.021973,331.773010 521.592285,330.806213 
	C526.872070,330.272827 530.992676,333.947418 530.829956,339.174713 
	C530.730469,342.371674 533.961609,345.970337 529.868103,348.830719 
	C524.743286,352.411774 519.332153,354.786987 512.886780,355.096497 
	C496.360382,355.890076 479.819885,355.440918 463.279114,357.359253 
	C452.347229,358.627045 441.403992,361.733185 429.766479,359.873230 
z"/>
<path fill="#000000" opacity="1.000000" stroke="none" 
	d="
M495.928101,212.746429 
	C494.754791,205.803833 498.037231,199.797699 497.630859,193.196991 
	C496.859375,180.665253 495.106812,168.537872 489.845032,157.044373 
	C487.905701,152.808243 485.736450,149.078293 481.634857,146.242096 
	C477.920868,143.673874 476.546204,138.623871 475.653625,134.563721 
	C474.738617,130.401657 479.008026,126.732056 482.460358,125.085136 
	C488.703003,122.107071 499.281830,122.793686 501.922668,131.846451 
	C504.086914,139.265472 509.996094,144.605713 511.843689,152.334976 
	C515.792664,168.855179 516.692871,185.501312 516.149658,202.345200 
	C516.027344,206.139374 513.650757,209.183044 513.080505,212.827728 
	C510.600281,228.679794 506.736115,244.287247 504.876740,260.258850 
	C504.085541,267.054901 498.816711,271.088074 494.102081,275.288788 
	C493.366302,275.944336 492.299194,276.112610 491.261566,275.784424 
	C488.968750,275.059113 484.410522,266.540314 484.357056,263.924957 
	C484.161224,254.338348 489.410126,245.554840 488.992920,236.230911 
	C488.668152,228.971924 493.889832,224.378769 494.916626,218.060684 
	C495.181915,216.428436 495.581543,214.817993 495.928101,212.746429 
z"/>
</svg>